<mxfile host="app.diagrams.net" modified="2022-08-25T22:41:44.881Z" agent="5.0 (Windows NT 10.0; Win64; x64) AppleWebKit/537.36 (KHTML, like Gecko) Chrome/103.0.5060.134 Safari/537.36 OPR/89.0.4447.104" etag="KPy-N9fdGVcD-4mQQZOd" version="20.2.7" type="github">
  <diagram id="EGwHfUXkq1iX7QBWrGjY" name="Page-1">
    <mxGraphModel dx="5774" dy="4311" grid="1" gridSize="10" guides="1" tooltips="1" connect="1" arrows="1" fold="1" page="1" pageScale="1" pageWidth="850" pageHeight="1100" math="0" shadow="0">
      <root>
        <mxCell id="0" />
        <mxCell id="1" parent="0" />
        <mxCell id="iRim4rE5BtQ3diBmJA8j-1" value="Users" style="swimlane;horizontal=0;startSize=80;strokeWidth=2;fontSize=20;" vertex="1" parent="1">
          <mxGeometry x="288.9830508474576" y="-444" width="3286.906779661017" height="295" as="geometry" />
        </mxCell>
        <mxCell id="iRim4rE5BtQ3diBmJA8j-2" style="edgeStyle=orthogonalEdgeStyle;shape=connector;rounded=0;orthogonalLoop=1;jettySize=auto;html=1;exitX=1;exitY=0.5;exitDx=0;exitDy=0;exitPerimeter=0;labelBackgroundColor=default;fontFamily=Helvetica;fontSize=11;fontColor=default;startArrow=none;startFill=0;endArrow=classic;strokeColor=default;strokeWidth=2;" edge="1" parent="iRim4rE5BtQ3diBmJA8j-1" source="iRim4rE5BtQ3diBmJA8j-3" target="iRim4rE5BtQ3diBmJA8j-7">
          <mxGeometry relative="1" as="geometry" />
        </mxCell>
        <mxCell id="iRim4rE5BtQ3diBmJA8j-3" value="" style="strokeWidth=2;html=1;shape=mxgraph.flowchart.start_2;whiteSpace=wrap;" vertex="1" parent="iRim4rE5BtQ3diBmJA8j-1">
          <mxGeometry x="163.60169491525423" y="110.625" width="59.49152542372881" height="59" as="geometry" />
        </mxCell>
        <mxCell id="iRim4rE5BtQ3diBmJA8j-4" value="&lt;span style=&quot;font-size: 20px;&quot;&gt;Download Report from System&lt;/span&gt;" style="rounded=1;whiteSpace=wrap;html=1;strokeWidth=2;" vertex="1" parent="iRim4rE5BtQ3diBmJA8j-1">
          <mxGeometry x="671.0172881355932" y="73.75" width="237.96610169491524" height="132.75" as="geometry" />
        </mxCell>
        <mxCell id="iRim4rE5BtQ3diBmJA8j-5" style="edgeStyle=orthogonalEdgeStyle;rounded=0;orthogonalLoop=1;jettySize=auto;html=1;strokeWidth=2;" edge="1" parent="iRim4rE5BtQ3diBmJA8j-1" source="iRim4rE5BtQ3diBmJA8j-4" target="iRim4rE5BtQ3diBmJA8j-9">
          <mxGeometry relative="1" as="geometry">
            <mxPoint x="1081.0169491525423" y="144" as="targetPoint" />
            <Array as="points">
              <mxPoint x="1081" y="154" />
              <mxPoint x="1081" y="154" />
            </Array>
          </mxGeometry>
        </mxCell>
        <mxCell id="iRim4rE5BtQ3diBmJA8j-6" style="edgeStyle=orthogonalEdgeStyle;shape=connector;rounded=0;orthogonalLoop=1;jettySize=auto;html=1;exitX=1;exitY=0.5;exitDx=0;exitDy=0;entryX=0;entryY=0.5;entryDx=0;entryDy=0;labelBackgroundColor=default;fontFamily=Helvetica;fontSize=11;fontColor=default;startArrow=none;startFill=0;endArrow=classic;strokeColor=default;strokeWidth=2;" edge="1" parent="iRim4rE5BtQ3diBmJA8j-1" source="iRim4rE5BtQ3diBmJA8j-7" target="iRim4rE5BtQ3diBmJA8j-4">
          <mxGeometry relative="1" as="geometry" />
        </mxCell>
        <mxCell id="iRim4rE5BtQ3diBmJA8j-7" value="&lt;span style=&quot;font-size: 20px;&quot;&gt;Send Request for Downloading Report&lt;/span&gt;" style="rounded=1;whiteSpace=wrap;html=1;strokeWidth=2;" vertex="1" parent="iRim4rE5BtQ3diBmJA8j-1">
          <mxGeometry x="351.01288135593217" y="73.75" width="237.96610169491524" height="132.75" as="geometry" />
        </mxCell>
        <mxCell id="iRim4rE5BtQ3diBmJA8j-8" style="edgeStyle=orthogonalEdgeStyle;rounded=0;orthogonalLoop=1;jettySize=auto;html=1;exitX=1;exitY=0.5;exitDx=0;exitDy=0;" edge="1" parent="iRim4rE5BtQ3diBmJA8j-1" source="iRim4rE5BtQ3diBmJA8j-9" target="iRim4rE5BtQ3diBmJA8j-10">
          <mxGeometry relative="1" as="geometry" />
        </mxCell>
        <mxCell id="iRim4rE5BtQ3diBmJA8j-9" value="&lt;span style=&quot;font-size: 20px;&quot;&gt;Receive Data from Forest Ministry&lt;/span&gt;" style="rounded=1;whiteSpace=wrap;html=1;strokeWidth=2;" vertex="1" parent="iRim4rE5BtQ3diBmJA8j-1">
          <mxGeometry x="1111.0172881355932" y="81.12" width="237.96610169491524" height="132.75" as="geometry" />
        </mxCell>
        <mxCell id="iRim4rE5BtQ3diBmJA8j-10" value="&lt;span style=&quot;font-size: 20px;&quot;&gt;Verifies the data&lt;/span&gt;" style="rounded=1;whiteSpace=wrap;html=1;strokeWidth=2;" vertex="1" parent="iRim4rE5BtQ3diBmJA8j-1">
          <mxGeometry x="1551.0172881355932" y="81.13" width="237.96610169491524" height="132.75" as="geometry" />
        </mxCell>
        <mxCell id="iRim4rE5BtQ3diBmJA8j-11" value="&lt;span style=&quot;font-size: 20px;&quot;&gt;Input Data to the System&lt;/span&gt;" style="rounded=1;whiteSpace=wrap;html=1;strokeWidth=2;" vertex="1" parent="iRim4rE5BtQ3diBmJA8j-1">
          <mxGeometry x="1911.0172881355932" y="81.13" width="237.96610169491524" height="132.75" as="geometry" />
        </mxCell>
        <mxCell id="iRim4rE5BtQ3diBmJA8j-12" value="Weather Station" style="swimlane;horizontal=0;startSize=80;fillStyle=solid;strokeWidth=2;fontSize=20;fontStyle=1" vertex="1" parent="1">
          <mxGeometry x="288.9830508474576" y="735" width="3286.91" height="311" as="geometry" />
        </mxCell>
        <mxCell id="iRim4rE5BtQ3diBmJA8j-13" style="edgeStyle=orthogonalEdgeStyle;rounded=0;orthogonalLoop=1;jettySize=auto;html=1;entryX=0;entryY=0.5;entryDx=0;entryDy=0;strokeWidth=2;" edge="1" parent="iRim4rE5BtQ3diBmJA8j-12" source="iRim4rE5BtQ3diBmJA8j-14" target="iRim4rE5BtQ3diBmJA8j-16">
          <mxGeometry relative="1" as="geometry" />
        </mxCell>
        <mxCell id="iRim4rE5BtQ3diBmJA8j-14" value="" style="strokeWidth=2;html=1;shape=mxgraph.flowchart.start_2;whiteSpace=wrap;" vertex="1" parent="iRim4rE5BtQ3diBmJA8j-12">
          <mxGeometry x="176.98728813559322" y="114.31250000000001" width="59.49152542372881" height="59" as="geometry" />
        </mxCell>
        <mxCell id="iRim4rE5BtQ3diBmJA8j-15" style="edgeStyle=orthogonalEdgeStyle;rounded=0;orthogonalLoop=1;jettySize=auto;html=1;entryX=0.006;entryY=0.441;entryDx=0;entryDy=0;entryPerimeter=0;strokeWidth=2;" edge="1" parent="iRim4rE5BtQ3diBmJA8j-12" source="iRim4rE5BtQ3diBmJA8j-16" target="iRim4rE5BtQ3diBmJA8j-18">
          <mxGeometry relative="1" as="geometry" />
        </mxCell>
        <mxCell id="iRim4rE5BtQ3diBmJA8j-16" value="&lt;font style=&quot;font-size: 20px;&quot;&gt;Collect Data from Weather monitoring Devices&lt;/font&gt;" style="rounded=1;whiteSpace=wrap;html=1;strokeWidth=2;" vertex="1" parent="iRim4rE5BtQ3diBmJA8j-12">
          <mxGeometry x="467.00847457627117" y="77.4375" width="237.96610169491524" height="132.75" as="geometry" />
        </mxCell>
        <mxCell id="iRim4rE5BtQ3diBmJA8j-17" style="edgeStyle=orthogonalEdgeStyle;rounded=0;orthogonalLoop=1;jettySize=auto;html=1;strokeWidth=2;" edge="1" parent="iRim4rE5BtQ3diBmJA8j-12" source="iRim4rE5BtQ3diBmJA8j-18" target="iRim4rE5BtQ3diBmJA8j-21">
          <mxGeometry relative="1" as="geometry">
            <mxPoint x="1502.16" y="150.84500000000025" as="targetPoint" />
          </mxGeometry>
        </mxCell>
        <mxCell id="iRim4rE5BtQ3diBmJA8j-18" value="&lt;font style=&quot;font-size: 20px;&quot;&gt;Send Data to Forest Ministry Representative&lt;/font&gt;" style="rounded=1;whiteSpace=wrap;html=1;strokeWidth=2;" vertex="1" parent="iRim4rE5BtQ3diBmJA8j-12">
          <mxGeometry x="1039.6144067796608" y="84.8125" width="237.96610169491524" height="132.75" as="geometry" />
        </mxCell>
        <mxCell id="iRim4rE5BtQ3diBmJA8j-19" value="&lt;font style=&quot;font-size: 20px;&quot;&gt;Download Report from System&lt;/font&gt;" style="rounded=1;whiteSpace=wrap;html=1;strokeWidth=2;" vertex="1" parent="iRim4rE5BtQ3diBmJA8j-12">
          <mxGeometry x="1841.0128813559324" y="84.81000000000006" width="237.96610169491524" height="132.75" as="geometry" />
        </mxCell>
        <mxCell id="iRim4rE5BtQ3diBmJA8j-20" style="edgeStyle=orthogonalEdgeStyle;rounded=0;orthogonalLoop=1;jettySize=auto;html=1;strokeWidth=2;" edge="1" parent="iRim4rE5BtQ3diBmJA8j-12" source="iRim4rE5BtQ3diBmJA8j-19" target="iRim4rE5BtQ3diBmJA8j-23">
          <mxGeometry relative="1" as="geometry">
            <mxPoint x="2242.446610169492" y="150.72775000000013" as="targetPoint" />
          </mxGeometry>
        </mxCell>
        <mxCell id="iRim4rE5BtQ3diBmJA8j-21" value="&lt;font style=&quot;font-size: 20px;&quot;&gt;Send Request for Downloading Report&lt;/font&gt;" style="rounded=1;whiteSpace=wrap;html=1;strokeWidth=2;" vertex="1" parent="iRim4rE5BtQ3diBmJA8j-12">
          <mxGeometry x="1481.0128813559322" y="84.81000000000006" width="237.96610169491524" height="132.75" as="geometry" />
        </mxCell>
        <mxCell id="iRim4rE5BtQ3diBmJA8j-22" style="edgeStyle=orthogonalEdgeStyle;rounded=0;orthogonalLoop=1;jettySize=auto;html=1;strokeWidth=2;" edge="1" parent="iRim4rE5BtQ3diBmJA8j-12" source="iRim4rE5BtQ3diBmJA8j-21" target="iRim4rE5BtQ3diBmJA8j-19">
          <mxGeometry relative="1" as="geometry">
            <mxPoint x="1482.03593220339" y="-278.96529411764686" as="sourcePoint" />
            <mxPoint x="1532.0338983050847" y="-272.63" as="targetPoint" />
          </mxGeometry>
        </mxCell>
        <mxCell id="iRim4rE5BtQ3diBmJA8j-23" value="" style="strokeWidth=8;html=1;shape=mxgraph.flowchart.start_2;whiteSpace=wrap;" vertex="1" parent="iRim4rE5BtQ3diBmJA8j-12">
          <mxGeometry x="2281.0210169491525" y="121.69000000000005" width="59.49152542372881" height="59" as="geometry" />
        </mxCell>
        <mxCell id="iRim4rE5BtQ3diBmJA8j-24" value="City CorporationÂ " style="swimlane;horizontal=0;startSize=80;strokeWidth=2;fontSize=20;" vertex="1" parent="1">
          <mxGeometry x="288.9830508474576" y="440" width="3286.906779661017" height="295" as="geometry" />
        </mxCell>
        <mxCell id="iRim4rE5BtQ3diBmJA8j-25" value="" style="strokeWidth=2;html=1;shape=mxgraph.flowchart.start_2;whiteSpace=wrap;" vertex="1" parent="iRim4rE5BtQ3diBmJA8j-24">
          <mxGeometry x="161.95169491525422" y="114.31500000000005" width="59.49152542372881" height="59" as="geometry" />
        </mxCell>
        <mxCell id="iRim4rE5BtQ3diBmJA8j-26" value="" style="strokeWidth=8;html=1;shape=mxgraph.flowchart.start_2;whiteSpace=wrap;" vertex="1" parent="iRim4rE5BtQ3diBmJA8j-24">
          <mxGeometry x="1911.0210169491525" y="121.69000000000005" width="59.49152542372881" height="59" as="geometry" />
        </mxCell>
        <mxCell id="iRim4rE5BtQ3diBmJA8j-27" value="&lt;font style=&quot;font-size: 20px;&quot;&gt;Download Report from System&lt;/font&gt;" style="rounded=1;whiteSpace=wrap;html=1;strokeWidth=2;" vertex="1" parent="iRim4rE5BtQ3diBmJA8j-24">
          <mxGeometry x="781.0128813559322" y="77.44000000000005" width="237.96610169491524" height="132.75" as="geometry" />
        </mxCell>
        <mxCell id="iRim4rE5BtQ3diBmJA8j-28" style="edgeStyle=orthogonalEdgeStyle;rounded=0;orthogonalLoop=1;jettySize=auto;html=1;strokeWidth=2;" edge="1" parent="iRim4rE5BtQ3diBmJA8j-24" source="iRim4rE5BtQ3diBmJA8j-25" target="iRim4rE5BtQ3diBmJA8j-34">
          <mxGeometry relative="1" as="geometry">
            <mxPoint x="411.0169491525424" y="144" as="targetPoint" />
          </mxGeometry>
        </mxCell>
        <mxCell id="iRim4rE5BtQ3diBmJA8j-29" style="edgeStyle=orthogonalEdgeStyle;rounded=0;orthogonalLoop=1;jettySize=auto;html=1;strokeWidth=2;" edge="1" parent="iRim4rE5BtQ3diBmJA8j-24" source="iRim4rE5BtQ3diBmJA8j-30" target="iRim4rE5BtQ3diBmJA8j-32">
          <mxGeometry relative="1" as="geometry">
            <mxPoint x="1501.0169491525423" y="151" as="targetPoint" />
          </mxGeometry>
        </mxCell>
        <mxCell id="iRim4rE5BtQ3diBmJA8j-30" value="&lt;font style=&quot;font-size: 20px;&quot;&gt;Receive Information about changes in the System from City Corporation Representative&lt;/font&gt;" style="rounded=1;whiteSpace=wrap;html=1;strokeWidth=2;" vertex="1" parent="iRim4rE5BtQ3diBmJA8j-24">
          <mxGeometry x="1161.0188135593219" y="84.81500000000005" width="237.96610169491524" height="132.75" as="geometry" />
        </mxCell>
        <mxCell id="iRim4rE5BtQ3diBmJA8j-31" style="edgeStyle=orthogonalEdgeStyle;rounded=0;orthogonalLoop=1;jettySize=auto;html=1;entryX=0.006;entryY=0.441;entryDx=0;entryDy=0;entryPerimeter=0;strokeWidth=2;" edge="1" parent="iRim4rE5BtQ3diBmJA8j-24" source="iRim4rE5BtQ3diBmJA8j-27" target="iRim4rE5BtQ3diBmJA8j-30">
          <mxGeometry relative="1" as="geometry" />
        </mxCell>
        <mxCell id="iRim4rE5BtQ3diBmJA8j-32" value="&lt;font style=&quot;font-size: 20px;&quot;&gt;Make Changes in the System&lt;/font&gt;" style="rounded=1;whiteSpace=wrap;html=1;strokeWidth=2;" vertex="1" parent="iRim4rE5BtQ3diBmJA8j-24">
          <mxGeometry x="1501.0188135593219" y="84.815" width="237.96610169491524" height="132.75" as="geometry" />
        </mxCell>
        <mxCell id="iRim4rE5BtQ3diBmJA8j-33" style="edgeStyle=orthogonalEdgeStyle;rounded=0;orthogonalLoop=1;jettySize=auto;html=1;strokeWidth=2;" edge="1" parent="iRim4rE5BtQ3diBmJA8j-24" source="iRim4rE5BtQ3diBmJA8j-32" target="iRim4rE5BtQ3diBmJA8j-26">
          <mxGeometry relative="1" as="geometry">
            <mxPoint x="1751.0149152542372" y="150.60000000000002" as="sourcePoint" />
            <mxPoint x="1891.0169491525423" y="151" as="targetPoint" />
          </mxGeometry>
        </mxCell>
        <mxCell id="iRim4rE5BtQ3diBmJA8j-34" value="&lt;font style=&quot;font-size: 20px;&quot;&gt;Send Request for Downloading Report&lt;/font&gt;" style="rounded=1;whiteSpace=wrap;html=1;strokeWidth=2;" vertex="1" parent="iRim4rE5BtQ3diBmJA8j-24">
          <mxGeometry x="451.0128813559323" y="77.44000000000005" width="237.96610169491524" height="132.75" as="geometry" />
        </mxCell>
        <mxCell id="iRim4rE5BtQ3diBmJA8j-35" style="edgeStyle=orthogonalEdgeStyle;rounded=0;orthogonalLoop=1;jettySize=auto;html=1;strokeWidth=2;" edge="1" parent="iRim4rE5BtQ3diBmJA8j-24" source="iRim4rE5BtQ3diBmJA8j-34" target="iRim4rE5BtQ3diBmJA8j-27">
          <mxGeometry relative="1" as="geometry">
            <mxPoint x="711.0189830508477" y="153.66470588235313" as="sourcePoint" />
            <mxPoint x="761.0169491525423" y="160" as="targetPoint" />
          </mxGeometry>
        </mxCell>
        <mxCell id="iRim4rE5BtQ3diBmJA8j-36" value="Human" style="swimlane;horizontal=0;startSize=80;strokeWidth=2;fontSize=20;" vertex="1" parent="1">
          <mxGeometry x="288.9830508474576" y="146" width="3286.906779661017" height="295" as="geometry" />
        </mxCell>
        <mxCell id="iRim4rE5BtQ3diBmJA8j-37" value="" style="strokeWidth=2;html=1;shape=mxgraph.flowchart.start_2;whiteSpace=wrap;" vertex="1" parent="iRim4rE5BtQ3diBmJA8j-36">
          <mxGeometry x="161.95169491525422" y="110.87500000000006" width="59.49152542372881" height="59" as="geometry" />
        </mxCell>
        <mxCell id="iRim4rE5BtQ3diBmJA8j-38" style="edgeStyle=orthogonalEdgeStyle;rounded=0;orthogonalLoop=1;jettySize=auto;html=1;entryX=0;entryY=0.5;entryDx=0;entryDy=0;strokeWidth=2;" edge="1" parent="iRim4rE5BtQ3diBmJA8j-36" source="iRim4rE5BtQ3diBmJA8j-37" target="iRim4rE5BtQ3diBmJA8j-39">
          <mxGeometry relative="1" as="geometry" />
        </mxCell>
        <mxCell id="iRim4rE5BtQ3diBmJA8j-39" value="&lt;font style=&quot;font-size: 20px;&quot;&gt;Collect Data from Weather Station&lt;/font&gt;" style="rounded=1;whiteSpace=wrap;html=1;strokeWidth=2;" vertex="1" parent="iRim4rE5BtQ3diBmJA8j-36">
          <mxGeometry x="451.9728813559322" y="74.00000000000006" width="237.96610169491524" height="132.75" as="geometry" />
        </mxCell>
        <mxCell id="iRim4rE5BtQ3diBmJA8j-40" style="edgeStyle=orthogonalEdgeStyle;rounded=0;orthogonalLoop=1;jettySize=auto;html=1;entryX=0.006;entryY=0.441;entryDx=0;entryDy=0;entryPerimeter=0;strokeWidth=2;" edge="1" parent="iRim4rE5BtQ3diBmJA8j-36" target="iRim4rE5BtQ3diBmJA8j-41">
          <mxGeometry relative="1" as="geometry">
            <mxPoint x="689.9389830508474" y="140.07470588235316" as="sourcePoint" />
          </mxGeometry>
        </mxCell>
        <mxCell id="iRim4rE5BtQ3diBmJA8j-41" value="&lt;font style=&quot;font-size: 20px;&quot;&gt;Send Data to forest Ministry&lt;/font&gt;" style="rounded=1;whiteSpace=wrap;html=1;strokeWidth=2;" vertex="1" parent="iRim4rE5BtQ3diBmJA8j-36">
          <mxGeometry x="1024.5788135593218" y="81.12500000000006" width="237.96610169491524" height="132.75" as="geometry" />
        </mxCell>
        <mxCell id="iRim4rE5BtQ3diBmJA8j-42" value="&lt;font style=&quot;font-size: 20px;&quot;&gt;Receive Request to make changes&lt;/font&gt;" style="rounded=1;whiteSpace=wrap;html=1;strokeWidth=2;" vertex="1" parent="iRim4rE5BtQ3diBmJA8j-36">
          <mxGeometry x="1524.468813559322" y="74.00500000000005" width="237.96610169491524" height="132.75" as="geometry" />
        </mxCell>
        <mxCell id="iRim4rE5BtQ3diBmJA8j-43" style="edgeStyle=orthogonalEdgeStyle;rounded=0;orthogonalLoop=1;jettySize=auto;html=1;strokeWidth=2;" edge="1" parent="iRim4rE5BtQ3diBmJA8j-36" source="iRim4rE5BtQ3diBmJA8j-41" target="iRim4rE5BtQ3diBmJA8j-42">
          <mxGeometry relative="1" as="geometry">
            <mxPoint x="1281.0189830508468" y="150.23470588235313" as="sourcePoint" />
            <mxPoint x="1481.0169491525423" y="164" as="targetPoint" />
            <Array as="points">
              <mxPoint x="1451" y="148" />
              <mxPoint x="1451" y="148" />
            </Array>
          </mxGeometry>
        </mxCell>
        <mxCell id="iRim4rE5BtQ3diBmJA8j-44" value="&lt;font style=&quot;font-size: 20px;&quot;&gt;Send Information about changes in the System to the City Corporation&lt;/font&gt;" style="rounded=1;whiteSpace=wrap;html=1;strokeWidth=2;" vertex="1" parent="iRim4rE5BtQ3diBmJA8j-36">
          <mxGeometry x="1951.0188135593219" y="81.12500000000006" width="237.96610169491524" height="132.75" as="geometry" />
        </mxCell>
        <mxCell id="iRim4rE5BtQ3diBmJA8j-45" style="edgeStyle=orthogonalEdgeStyle;rounded=0;orthogonalLoop=1;jettySize=auto;html=1;strokeWidth=2;" edge="1" parent="iRim4rE5BtQ3diBmJA8j-36" source="iRim4rE5BtQ3diBmJA8j-42" target="iRim4rE5BtQ3diBmJA8j-44">
          <mxGeometry relative="1" as="geometry">
            <mxPoint x="1791.0149152542383" y="146.78142857142888" as="sourcePoint" />
            <mxPoint x="1908.0169491525423" y="154" as="targetPoint" />
            <Array as="points">
              <mxPoint x="1811" y="148" />
              <mxPoint x="1811" y="148" />
            </Array>
          </mxGeometry>
        </mxCell>
        <mxCell id="iRim4rE5BtQ3diBmJA8j-46" value="" style="strokeWidth=8;html=1;shape=mxgraph.flowchart.start_2;whiteSpace=wrap;" vertex="1" parent="iRim4rE5BtQ3diBmJA8j-36">
          <mxGeometry x="2393.051016949152" y="118.00000000000006" width="59.49152542372881" height="59" as="geometry" />
        </mxCell>
        <mxCell id="iRim4rE5BtQ3diBmJA8j-47" style="edgeStyle=orthogonalEdgeStyle;rounded=0;orthogonalLoop=1;jettySize=auto;html=1;strokeWidth=2;" edge="1" parent="iRim4rE5BtQ3diBmJA8j-36" source="iRim4rE5BtQ3diBmJA8j-44" target="iRim4rE5BtQ3diBmJA8j-46">
          <mxGeometry relative="1" as="geometry">
            <mxPoint x="2221.0149152542376" y="147.45285714285734" as="sourcePoint" />
            <mxPoint x="2084.063898305085" y="-292.69" as="targetPoint" />
          </mxGeometry>
        </mxCell>
        <mxCell id="iRim4rE5BtQ3diBmJA8j-48" style="edgeStyle=orthogonalEdgeStyle;rounded=0;orthogonalLoop=1;jettySize=auto;html=1;dashed=1;startArrow=oval;startFill=0;endArrow=classic;endFill=1;strokeWidth=2;startSize=12;" edge="1" parent="1" source="iRim4rE5BtQ3diBmJA8j-18" target="iRim4rE5BtQ3diBmJA8j-39">
          <mxGeometry relative="1" as="geometry">
            <Array as="points">
              <mxPoint x="1447.9830508474577" y="750" />
              <mxPoint x="1009.9830508474577" y="750" />
              <mxPoint x="1009.9830508474577" y="410" />
              <mxPoint x="859.9830508474577" y="410" />
            </Array>
            <mxPoint x="251.0169491525424" y="234" as="targetPoint" />
          </mxGeometry>
        </mxCell>
        <mxCell id="iRim4rE5BtQ3diBmJA8j-49" style="edgeStyle=orthogonalEdgeStyle;rounded=0;orthogonalLoop=1;jettySize=auto;html=1;exitX=0.5;exitY=1;exitDx=0;exitDy=0;dashed=1;startArrow=oval;startFill=0;startSize=12;sourcePerimeterSpacing=0;strokeWidth=2;" edge="1" parent="1" source="iRim4rE5BtQ3diBmJA8j-44" target="iRim4rE5BtQ3diBmJA8j-30">
          <mxGeometry relative="1" as="geometry">
            <Array as="points">
              <mxPoint x="2358.9830508474574" y="460" />
              <mxPoint x="1568.9830508474577" y="460" />
            </Array>
          </mxGeometry>
        </mxCell>
        <mxCell id="iRim4rE5BtQ3diBmJA8j-50" value="Forest Ministry" style="swimlane;horizontal=0;startSize=80;strokeWidth=2;fontSize=20;rounded=0;swimlaneLine=1;" vertex="1" parent="1">
          <mxGeometry x="288.9830508474576" y="-149" width="3286.906779661017" height="295" as="geometry">
            <mxRectangle x="880" y="360" width="40" height="150" as="alternateBounds" />
          </mxGeometry>
        </mxCell>
        <mxCell id="iRim4rE5BtQ3diBmJA8j-51" style="edgeStyle=orthogonalEdgeStyle;rounded=0;orthogonalLoop=1;jettySize=auto;html=1;strokeWidth=2;" edge="1" parent="iRim4rE5BtQ3diBmJA8j-50" source="iRim4rE5BtQ3diBmJA8j-59" target="iRim4rE5BtQ3diBmJA8j-63">
          <mxGeometry relative="1" as="geometry">
            <mxPoint x="2341.017118644067" y="145.38000000000056" as="targetPoint" />
            <mxPoint x="2111.0169491525426" y="149" as="sourcePoint" />
          </mxGeometry>
        </mxCell>
        <mxCell id="iRim4rE5BtQ3diBmJA8j-52" value="&lt;font style=&quot;font-size: 20px;&quot;&gt;Send Data to Forest Ministry Representative&lt;/font&gt;" style="rounded=1;whiteSpace=wrap;html=1;strokeWidth=2;" vertex="1" parent="iRim4rE5BtQ3diBmJA8j-50">
          <mxGeometry x="1151.012033898305" y="81.125" width="237.96610169491524" height="132.75" as="geometry" />
        </mxCell>
        <mxCell id="iRim4rE5BtQ3diBmJA8j-53" style="edgeStyle=orthogonalEdgeStyle;rounded=0;orthogonalLoop=1;jettySize=auto;html=1;entryX=0;entryY=0.5;entryDx=0;entryDy=0;strokeWidth=2;" edge="1" parent="iRim4rE5BtQ3diBmJA8j-50" source="iRim4rE5BtQ3diBmJA8j-58" target="iRim4rE5BtQ3diBmJA8j-57">
          <mxGeometry relative="1" as="geometry" />
        </mxCell>
        <mxCell id="iRim4rE5BtQ3diBmJA8j-54" style="edgeStyle=orthogonalEdgeStyle;rounded=0;orthogonalLoop=1;jettySize=auto;html=1;exitX=1;exitY=0.441;exitDx=0;exitDy=0;exitPerimeter=0;strokeWidth=2;" edge="1" parent="iRim4rE5BtQ3diBmJA8j-50" source="iRim4rE5BtQ3diBmJA8j-55" target="iRim4rE5BtQ3diBmJA8j-52">
          <mxGeometry relative="1" as="geometry">
            <mxPoint x="1181.0169491525423" y="140" as="targetPoint" />
            <Array as="points">
              <mxPoint x="1190" y="140" />
              <mxPoint x="1190" y="147" />
            </Array>
          </mxGeometry>
        </mxCell>
        <mxCell id="iRim4rE5BtQ3diBmJA8j-55" value="&lt;font style=&quot;font-size: 20px;&quot;&gt;Process the Data&lt;/font&gt;" style="rounded=1;whiteSpace=wrap;html=1;strokeWidth=2;" vertex="1" parent="iRim4rE5BtQ3diBmJA8j-50">
          <mxGeometry x="791.0144067796609" y="81.125" width="237.96610169491524" height="132.75" as="geometry" />
        </mxCell>
        <mxCell id="iRim4rE5BtQ3diBmJA8j-56" style="edgeStyle=orthogonalEdgeStyle;rounded=0;orthogonalLoop=1;jettySize=auto;html=1;exitX=1;exitY=0.5;exitDx=0;exitDy=0;entryX=0;entryY=0.5;entryDx=0;entryDy=0;fontSize=27;strokeWidth=2;" edge="1" parent="iRim4rE5BtQ3diBmJA8j-50" source="iRim4rE5BtQ3diBmJA8j-57" target="iRim4rE5BtQ3diBmJA8j-55">
          <mxGeometry relative="1" as="geometry" />
        </mxCell>
        <mxCell id="iRim4rE5BtQ3diBmJA8j-57" value="&lt;span style=&quot;font-size: 20px;&quot;&gt;Receive&lt;br&gt;data from Forest Ministry Representative&lt;/span&gt;" style="rounded=1;whiteSpace=wrap;html=1;strokeWidth=2;" vertex="1" parent="iRim4rE5BtQ3diBmJA8j-50">
          <mxGeometry x="438.75" y="81.125" width="237.96610169491524" height="132.75" as="geometry" />
        </mxCell>
        <mxCell id="iRim4rE5BtQ3diBmJA8j-58" value="" style="strokeWidth=2;html=1;shape=mxgraph.flowchart.start_2;whiteSpace=wrap;" vertex="1" parent="iRim4rE5BtQ3diBmJA8j-50">
          <mxGeometry x="163.60169491525423" y="118" width="59.49152542372881" height="59" as="geometry" />
        </mxCell>
        <mxCell id="iRim4rE5BtQ3diBmJA8j-59" value="&lt;font style=&quot;font-size: 20px;&quot;&gt;Download Report from System&lt;/font&gt;" style="rounded=1;whiteSpace=wrap;html=1;strokeWidth=2;" vertex="1" parent="iRim4rE5BtQ3diBmJA8j-50">
          <mxGeometry x="1921.0128813559324" y="79" width="237.96610169491524" height="132.75" as="geometry" />
        </mxCell>
        <mxCell id="iRim4rE5BtQ3diBmJA8j-60" value="&lt;font style=&quot;font-size: 20px;&quot;&gt;Send Request for Downloading Report&lt;/font&gt;" style="rounded=1;whiteSpace=wrap;html=1;strokeWidth=2;" vertex="1" parent="iRim4rE5BtQ3diBmJA8j-50">
          <mxGeometry x="1521.0128813559322" y="79" width="237.96610169491524" height="132.75" as="geometry" />
        </mxCell>
        <mxCell id="iRim4rE5BtQ3diBmJA8j-61" style="edgeStyle=orthogonalEdgeStyle;rounded=0;orthogonalLoop=1;jettySize=auto;html=1;strokeWidth=2;" edge="1" parent="iRim4rE5BtQ3diBmJA8j-50" source="iRim4rE5BtQ3diBmJA8j-60" target="iRim4rE5BtQ3diBmJA8j-59">
          <mxGeometry relative="1" as="geometry">
            <mxPoint x="1861.0169491525423" y="139" as="targetPoint" />
            <mxPoint x="1771.0189830508473" y="144.7900000000001" as="sourcePoint" />
          </mxGeometry>
        </mxCell>
        <mxCell id="iRim4rE5BtQ3diBmJA8j-62" style="edgeStyle=orthogonalEdgeStyle;rounded=0;orthogonalLoop=1;jettySize=auto;html=1;strokeWidth=2;" edge="1" parent="iRim4rE5BtQ3diBmJA8j-50" source="iRim4rE5BtQ3diBmJA8j-52" target="iRim4rE5BtQ3diBmJA8j-60">
          <mxGeometry relative="1" as="geometry">
            <mxPoint x="1471.0169491525423" y="179" as="targetPoint" />
            <mxPoint x="1401.0189830508473" y="149.025" as="sourcePoint" />
            <Array as="points">
              <mxPoint x="1471" y="149" />
              <mxPoint x="1471" y="149" />
            </Array>
          </mxGeometry>
        </mxCell>
        <mxCell id="iRim4rE5BtQ3diBmJA8j-63" value="&lt;font style=&quot;font-size: 20px;&quot;&gt;Send Request to make changes in system &lt;br&gt;to the City Corporation Representative&lt;/font&gt;" style="rounded=1;whiteSpace=wrap;html=1;strokeWidth=2;" vertex="1" parent="iRim4rE5BtQ3diBmJA8j-50">
          <mxGeometry x="2351.0128813559327" y="79" width="237.96610169491524" height="132.75" as="geometry" />
        </mxCell>
        <mxCell id="iRim4rE5BtQ3diBmJA8j-64" value="" style="strokeWidth=8;html=1;shape=mxgraph.flowchart.start_2;whiteSpace=wrap;" vertex="1" parent="iRim4rE5BtQ3diBmJA8j-50">
          <mxGeometry x="2841.0210169491525" y="118" width="59.49152542372881" height="59" as="geometry" />
        </mxCell>
        <mxCell id="iRim4rE5BtQ3diBmJA8j-65" style="edgeStyle=orthogonalEdgeStyle;rounded=0;orthogonalLoop=1;jettySize=auto;html=1;strokeWidth=2;" edge="1" parent="iRim4rE5BtQ3diBmJA8j-50" source="iRim4rE5BtQ3diBmJA8j-63" target="iRim4rE5BtQ3diBmJA8j-64">
          <mxGeometry relative="1" as="geometry">
            <mxPoint x="2793.0528813559326" y="148.995" as="targetPoint" />
            <mxPoint x="2601.0189830508484" y="148.995" as="sourcePoint" />
            <Array as="points">
              <mxPoint x="2697" y="149" />
              <mxPoint x="2793" y="148" />
            </Array>
          </mxGeometry>
        </mxCell>
        <mxCell id="iRim4rE5BtQ3diBmJA8j-66" style="edgeStyle=orthogonalEdgeStyle;rounded=0;orthogonalLoop=1;jettySize=auto;html=1;exitX=0.5;exitY=0;exitDx=0;exitDy=0;dashed=1;startArrow=oval;startFill=0;startSize=12;sourcePerimeterSpacing=0;strokeWidth=2;" edge="1" parent="1" source="iRim4rE5BtQ3diBmJA8j-41" target="iRim4rE5BtQ3diBmJA8j-57">
          <mxGeometry relative="1" as="geometry">
            <Array as="points">
              <mxPoint x="1431.9830508474577" y="130" />
              <mxPoint x="846.9830508474577" y="130" />
            </Array>
          </mxGeometry>
        </mxCell>
        <mxCell id="iRim4rE5BtQ3diBmJA8j-67" style="edgeStyle=orthogonalEdgeStyle;rounded=0;orthogonalLoop=1;jettySize=auto;html=1;exitX=0.5;exitY=1;exitDx=0;exitDy=0;dashed=1;startArrow=oval;startFill=0;startSize=12;sourcePerimeterSpacing=0;strokeWidth=2;" edge="1" parent="1" source="iRim4rE5BtQ3diBmJA8j-63" target="iRim4rE5BtQ3diBmJA8j-42">
          <mxGeometry relative="1" as="geometry">
            <mxPoint x="1551.0169491525423" y="359" as="targetPoint" />
            <Array as="points">
              <mxPoint x="2758.9830508474574" y="170" />
              <mxPoint x="1932.9830508474577" y="170" />
            </Array>
          </mxGeometry>
        </mxCell>
        <mxCell id="iRim4rE5BtQ3diBmJA8j-68" value="System" style="swimlane;horizontal=0;startSize=80;strokeWidth=2;fontSize=20;" vertex="1" parent="1">
          <mxGeometry x="290" y="-754" width="3285.89" height="310" as="geometry" />
        </mxCell>
        <mxCell id="iRim4rE5BtQ3diBmJA8j-69" style="edgeStyle=orthogonalEdgeStyle;shape=connector;rounded=0;orthogonalLoop=1;jettySize=auto;html=1;exitX=1;exitY=0.5;exitDx=0;exitDy=0;exitPerimeter=0;labelBackgroundColor=default;fontFamily=Helvetica;fontSize=11;fontColor=default;startArrow=none;startFill=0;endArrow=classic;strokeColor=default;strokeWidth=2;" edge="1" parent="iRim4rE5BtQ3diBmJA8j-68" source="iRim4rE5BtQ3diBmJA8j-70">
          <mxGeometry relative="1" as="geometry">
            <mxPoint x="467.00847457627117" y="132.75" as="targetPoint" />
          </mxGeometry>
        </mxCell>
        <mxCell id="iRim4rE5BtQ3diBmJA8j-70" value="" style="strokeWidth=2;html=1;shape=mxgraph.flowchart.start_2;whiteSpace=wrap;" vertex="1" parent="iRim4rE5BtQ3diBmJA8j-68">
          <mxGeometry x="176.98728813559322" y="103.25" width="59.49152542372881" height="59" as="geometry" />
        </mxCell>
        <mxCell id="iRim4rE5BtQ3diBmJA8j-71" value="" style="strokeWidth=8;html=1;shape=mxgraph.flowchart.start_2;whiteSpace=wrap;" vertex="1" parent="iRim4rE5BtQ3diBmJA8j-68">
          <mxGeometry x="2680.0035593220337" y="103.25" width="59.49152542372881" height="59" as="geometry" />
        </mxCell>
        <mxCell id="iRim4rE5BtQ3diBmJA8j-72" value="&lt;font style=&quot;font-size: 20px;&quot;&gt;Receive Data from the Forest Ministry&lt;/font&gt;" style="rounded=1;whiteSpace=wrap;html=1;strokeWidth=2;" vertex="1" parent="iRim4rE5BtQ3diBmJA8j-68">
          <mxGeometry x="475.9322033898305" y="66.375" width="237.96610169491524" height="132.75" as="geometry" />
        </mxCell>
        <mxCell id="iRim4rE5BtQ3diBmJA8j-73" value="&lt;font style=&quot;font-size: 20px;&quot;&gt;Store data in the System&lt;/font&gt;" style="rounded=1;whiteSpace=wrap;html=1;strokeWidth=2;" vertex="1" parent="iRim4rE5BtQ3diBmJA8j-68">
          <mxGeometry x="922.1186440677966" y="66.375" width="237.96610169491524" height="132.75" as="geometry" />
        </mxCell>
        <mxCell id="iRim4rE5BtQ3diBmJA8j-74" style="edgeStyle=orthogonalEdgeStyle;rounded=0;orthogonalLoop=1;jettySize=auto;html=1;entryX=0;entryY=0.5;entryDx=0;entryDy=0;startArrow=none;startFill=0;endArrow=classic;endFill=1;strokeWidth=2;" edge="1" parent="iRim4rE5BtQ3diBmJA8j-68" source="iRim4rE5BtQ3diBmJA8j-75" target="iRim4rE5BtQ3diBmJA8j-77">
          <mxGeometry relative="1" as="geometry" />
        </mxCell>
        <mxCell id="iRim4rE5BtQ3diBmJA8j-75" value="&lt;font style=&quot;font-size: 20px;&quot;&gt;Receive request for Downloading Report&lt;/font&gt;" style="rounded=1;whiteSpace=wrap;html=1;strokeWidth=2;" vertex="1" parent="iRim4rE5BtQ3diBmJA8j-68">
          <mxGeometry x="1353.4322033898304" y="66.375" width="237.96610169491524" height="132.75" as="geometry" />
        </mxCell>
        <mxCell id="iRim4rE5BtQ3diBmJA8j-76" style="edgeStyle=orthogonalEdgeStyle;rounded=0;orthogonalLoop=1;jettySize=auto;html=1;startArrow=none;startFill=0;endArrow=classic;endFill=1;strokeWidth=2;" edge="1" parent="iRim4rE5BtQ3diBmJA8j-68" source="iRim4rE5BtQ3diBmJA8j-77" target="iRim4rE5BtQ3diBmJA8j-80">
          <mxGeometry relative="1" as="geometry">
            <mxPoint x="2230" y="133" as="targetPoint" />
          </mxGeometry>
        </mxCell>
        <mxCell id="iRim4rE5BtQ3diBmJA8j-77" value="&lt;span style=&quot;font-size: 20px;&quot;&gt;Generate the Report&lt;/span&gt;" style="rounded=1;whiteSpace=wrap;html=1;strokeWidth=2;" vertex="1" parent="iRim4rE5BtQ3diBmJA8j-68">
          <mxGeometry x="1799.6186440677966" y="66.375" width="237.96610169491524" height="132.75" as="geometry" />
        </mxCell>
        <mxCell id="iRim4rE5BtQ3diBmJA8j-78" style="edgeStyle=orthogonalEdgeStyle;rounded=0;orthogonalLoop=1;jettySize=auto;html=1;strokeWidth=2;" edge="1" parent="iRim4rE5BtQ3diBmJA8j-68" source="iRim4rE5BtQ3diBmJA8j-72" target="iRim4rE5BtQ3diBmJA8j-73">
          <mxGeometry relative="1" as="geometry">
            <mxPoint x="921.101694915254" y="142.75" as="targetPoint" />
          </mxGeometry>
        </mxCell>
        <mxCell id="iRim4rE5BtQ3diBmJA8j-79" style="edgeStyle=orthogonalEdgeStyle;rounded=0;orthogonalLoop=1;jettySize=auto;html=1;exitX=1;exitY=0.5;exitDx=0;exitDy=0;strokeWidth=2;" edge="1" parent="iRim4rE5BtQ3diBmJA8j-68" source="iRim4rE5BtQ3diBmJA8j-73" target="iRim4rE5BtQ3diBmJA8j-75">
          <mxGeometry relative="1" as="geometry">
            <mxPoint x="1352.415254237288" y="142.0125" as="targetPoint" />
          </mxGeometry>
        </mxCell>
        <mxCell id="iRim4rE5BtQ3diBmJA8j-80" value="&lt;span style=&quot;font-size: 20px;&quot;&gt;Send Report&lt;/span&gt;" style="rounded=1;whiteSpace=wrap;html=1;strokeWidth=2;" vertex="1" parent="iRim4rE5BtQ3diBmJA8j-68">
          <mxGeometry x="2249.9986440677967" y="66.375" width="237.96610169491524" height="132.75" as="geometry" />
        </mxCell>
        <mxCell id="iRim4rE5BtQ3diBmJA8j-81" style="edgeStyle=orthogonalEdgeStyle;rounded=0;orthogonalLoop=1;jettySize=auto;html=1;startArrow=none;startFill=0;endArrow=classic;endFill=1;strokeWidth=2;" edge="1" parent="iRim4rE5BtQ3diBmJA8j-68" source="iRim4rE5BtQ3diBmJA8j-80" target="iRim4rE5BtQ3diBmJA8j-71">
          <mxGeometry relative="1" as="geometry">
            <mxPoint x="2500.0047457627115" y="132.15999999999997" as="sourcePoint" />
            <mxPoint x="2630" y="132" as="targetPoint" />
          </mxGeometry>
        </mxCell>
        <mxCell id="iRim4rE5BtQ3diBmJA8j-82" style="edgeStyle=orthogonalEdgeStyle;rounded=0;orthogonalLoop=1;jettySize=auto;html=1;startArrow=oval;startFill=0;endArrow=classic;endFill=1;dashed=1;strokeWidth=2;jumpSize=6;startSize=12;" edge="1" parent="1" source="iRim4rE5BtQ3diBmJA8j-7" target="iRim4rE5BtQ3diBmJA8j-75">
          <mxGeometry relative="1" as="geometry">
            <mxPoint x="1580" y="214" as="targetPoint" />
            <Array as="points">
              <mxPoint x="760" y="-420" />
              <mxPoint x="1700" y="-420" />
            </Array>
          </mxGeometry>
        </mxCell>
        <mxCell id="iRim4rE5BtQ3diBmJA8j-83" style="edgeStyle=orthogonalEdgeStyle;rounded=0;orthogonalLoop=1;jettySize=auto;html=1;dashed=1;startArrow=oval;startFill=0;endArrow=classic;endFill=1;strokeWidth=2;startSize=12;" edge="1" parent="1" source="iRim4rE5BtQ3diBmJA8j-80" target="iRim4rE5BtQ3diBmJA8j-4">
          <mxGeometry relative="1" as="geometry">
            <Array as="points">
              <mxPoint x="2580" y="-400" />
              <mxPoint x="1060" y="-400" />
            </Array>
            <mxPoint x="1120" y="364" as="targetPoint" />
          </mxGeometry>
        </mxCell>
        <mxCell id="iRim4rE5BtQ3diBmJA8j-84" value="&lt;b style=&quot;background-color: initial; font-size: 50px;&quot;&gt;&lt;font style=&quot;font-size: 50px;&quot;&gt;Air Quality Index&lt;/font&gt;&lt;/b&gt;" style="rounded=180&#xa;;whiteSpace=wrap;html=1;fontFamily=Helvetica;fontSize=50;fontColor=default;strokeWidth=2;verticalAlign=middle;horizontal=0;" vertex="1" parent="1">
          <mxGeometry x="170" y="-754" width="118.98" height="1800" as="geometry" />
        </mxCell>
        <mxCell id="iRim4rE5BtQ3diBmJA8j-85" style="edgeStyle=orthogonalEdgeStyle;rounded=0;orthogonalLoop=1;jettySize=auto;html=1;exitX=0.5;exitY=0;exitDx=0;exitDy=0;dashed=1;startArrow=oval;startFill=0;startSize=12;sourcePerimeterSpacing=0;strokeWidth=2;" edge="1" parent="1" source="iRim4rE5BtQ3diBmJA8j-60" target="iRim4rE5BtQ3diBmJA8j-75">
          <mxGeometry relative="1" as="geometry">
            <Array as="points">
              <mxPoint x="2100" y="-70" />
              <mxPoint x="2100" y="-420" />
              <mxPoint x="1810" y="-420" />
            </Array>
          </mxGeometry>
        </mxCell>
        <mxCell id="iRim4rE5BtQ3diBmJA8j-86" style="edgeStyle=orthogonalEdgeStyle;rounded=0;orthogonalLoop=1;jettySize=auto;html=1;dashed=1;startArrow=oval;startFill=0;startSize=12;sourcePerimeterSpacing=0;strokeWidth=2;" edge="1" parent="1" source="iRim4rE5BtQ3diBmJA8j-80" target="iRim4rE5BtQ3diBmJA8j-59">
          <mxGeometry relative="1" as="geometry">
            <Array as="points">
              <mxPoint x="2700" y="-170" />
              <mxPoint x="2340" y="-170" />
            </Array>
          </mxGeometry>
        </mxCell>
        <mxCell id="iRim4rE5BtQ3diBmJA8j-87" style="edgeStyle=orthogonalEdgeStyle;rounded=0;orthogonalLoop=1;jettySize=auto;html=1;exitX=0.5;exitY=0;exitDx=0;exitDy=0;dashed=1;startArrow=oval;startFill=0;startSize=12;sourcePerimeterSpacing=0;strokeWidth=2;" edge="1" parent="1" source="iRim4rE5BtQ3diBmJA8j-34" target="iRim4rE5BtQ3diBmJA8j-75">
          <mxGeometry relative="1" as="geometry">
            <Array as="points">
              <mxPoint x="859" y="470" />
              <mxPoint x="630" y="470" />
              <mxPoint x="630" y="-110" />
              <mxPoint x="1740" y="-110" />
            </Array>
          </mxGeometry>
        </mxCell>
        <mxCell id="iRim4rE5BtQ3diBmJA8j-88" style="edgeStyle=orthogonalEdgeStyle;rounded=0;orthogonalLoop=1;jettySize=auto;html=1;dashed=1;startArrow=oval;startFill=0;startSize=12;sourcePerimeterSpacing=0;strokeWidth=2;" edge="1" parent="1" source="iRim4rE5BtQ3diBmJA8j-80" target="iRim4rE5BtQ3diBmJA8j-27">
          <mxGeometry relative="1" as="geometry">
            <Array as="points">
              <mxPoint x="2640" y="-210" />
              <mxPoint x="2149" y="-210" />
              <mxPoint x="2149" y="410" />
              <mxPoint x="1189" y="410" />
            </Array>
          </mxGeometry>
        </mxCell>
        <mxCell id="iRim4rE5BtQ3diBmJA8j-89" style="edgeStyle=orthogonalEdgeStyle;rounded=0;orthogonalLoop=1;jettySize=auto;html=1;exitX=0.5;exitY=0;exitDx=0;exitDy=0;dashed=1;startArrow=oval;startFill=0;startSize=12;sourcePerimeterSpacing=0;strokeWidth=2;" edge="1" parent="1" source="iRim4rE5BtQ3diBmJA8j-21" target="iRim4rE5BtQ3diBmJA8j-75">
          <mxGeometry relative="1" as="geometry">
            <Array as="points">
              <mxPoint x="1889" y="720" />
              <mxPoint x="1770" y="720" />
            </Array>
          </mxGeometry>
        </mxCell>
        <mxCell id="iRim4rE5BtQ3diBmJA8j-90" style="edgeStyle=orthogonalEdgeStyle;rounded=0;orthogonalLoop=1;jettySize=auto;html=1;dashed=1;startArrow=oval;startFill=0;startSize=12;sourcePerimeterSpacing=0;strokeWidth=2;" edge="1" parent="1" source="iRim4rE5BtQ3diBmJA8j-80" target="iRim4rE5BtQ3diBmJA8j-19">
          <mxGeometry relative="1" as="geometry">
            <mxPoint x="2607.2857142857147" y="1602.5714285714284" as="targetPoint" />
            <mxPoint x="2620" y="214" as="sourcePoint" />
            <Array as="points">
              <mxPoint x="2730" y="-480" />
              <mxPoint x="2940" y="-480" />
              <mxPoint x="2940" y="760" />
              <mxPoint x="2249" y="760" />
            </Array>
          </mxGeometry>
        </mxCell>
      </root>
    </mxGraphModel>
  </diagram>
</mxfile>
